<svg xmlns="http://www.w3.org/2000/svg" width="754" height="810" fill="none"><path d="M142.509 137.801a1 1 0 0 1 1.053-1.376l16.316 2.131a1 1 0 0 1 .665 1.6l-10.004 13.064a1 1 0 0 1-1.717-.224l-6.313-15.195z" stroke="#93278c" stroke-width="2"/><g fill="#6579f4"><rect x="99.196" y="350.202" width="2" height="22" rx="1" transform="rotate(347.173 99.196 350.202)"/><rect x="113.116" y="357.288" width="2" height="22" rx="1" transform="rotate(77.173 113.116 357.288)"/></g><g fill="#93278c"><rect x="624.693" y="566.664" width="2" height="22" rx="1" transform="rotate(347.173 624.693 566.664)"/><rect x="638.614" y="573.75" width="2" height="22" rx="1" transform="rotate(77.173 638.614 573.75)"/></g><g stroke-width="2"><circle cx="595.552" cy="199.609" r="11" transform="rotate(284.412 595.552 199.609)" stroke="#22e742"/><g stroke="#6579f4"><circle cx="184.552" cy="694.609" r="11" transform="rotate(284.412 184.552 694.609)"/><circle cx="297.552" cy="220.609" r="11" transform="rotate(284.412 297.552 220.609)"/></g></g><g fill="#6579f4"><circle cx="109.787" cy="579.888" r="4.5" transform="rotate(284.412 109.787 579.888)"/><circle cx="498.157" cy="89.104" r="4.5" transform="rotate(284.412 498.157 89.104)"/><circle cx="558.61" cy="376.183" r="4.5" transform="rotate(284.412 558.61 376.183)"/><circle cx="175.589" cy="235.426" r="2.5" transform="rotate(284.412 175.589 235.426)"/><circle cx="496.448" cy="646.209" r="2.5" transform="rotate(284.412 496.448 646.209)"/><circle cx="538.986" cy="544.044" r="2.5" transform="rotate(284.412 538.986 544.044)"/></g></svg>